<?xml version="1.0" encoding="utf-8"?>
<!-- Generator: Adobe Illustrator 27.7.0, SVG Export Plug-In . SVG Version: 6.00 Build 0)  -->
<svg version="1.1" id="Layer_1" xmlns="http://www.w3.org/2000/svg" xmlns:xlink="http://www.w3.org/1999/xlink" x="0px" y="0px"
	 viewBox="0 0 100 100" style="enable-background:new 0 0 100 100;" xml:space="preserve">
<style type="text/css">
	.st0{fill:#FFFFFF;stroke:#000000;stroke-width:0.9;stroke-linecap:round;stroke-linejoin:round;stroke-miterlimit:10;}
	.st1{fill:#FFFFFF;stroke:#000000;stroke-miterlimit:10;}
	.st2{fill:#FFFFFF;stroke:#000000;stroke-width:0.9;stroke-miterlimit:10;}
	.st3{fill-rule:evenodd;clip-rule:evenodd;fill:#FFFFFF;stroke:#000000;stroke-width:0.5;stroke-miterlimit:10;}
	.st4{fill-rule:evenodd;clip-rule:evenodd;fill:#FF0000;}
	.st5{fill:#006837;}
	.st6{fill-rule:evenodd;clip-rule:evenodd;fill:#FFFFFF;}
</style>
<g>
	<g>
		<path class="st2" d="M68.2,62.42c-0.09-0.77-0.75-1.35-1.52-1.35H60.1v-5.98c0-0.85-0.69-1.53-1.53-1.53h-3.16l2.37-11.75
			l4.09,2.13c0.22,0.11,0.47,0.17,0.72,0.17c0.32,0,0.64-0.11,0.9-0.3c0.47-0.34,0.71-0.93,0.61-1.5l-2.31-13.14l9.55-9.31
			c0.41-0.4,0.56-1,0.39-1.55c-0.18-0.55-0.66-0.95-1.24-1.02l-13.2-1.96L51.39,3.36c-0.37-0.76-1.29-1.08-2.05-0.71
			c-0.31,0.15-0.56,0.4-0.71,0.71l-5.91,11.96l-13.15,1.96c-0.57,0.08-1.05,0.47-1.24,1.02c-0.18,0.56-0.03,1.17,0.39,1.57
			l9.55,9.31l-2.31,13.13c-0.14,0.84,0.43,1.63,1.27,1.77c0.33,0.05,0.66,0,0.96-0.15l4.09-2.13l2.37,11.78h-3.21
			c-0.85,0-1.53,0.69-1.53,1.53v5.94h-6.58c-0.78,0-1.43,0.58-1.52,1.35l-4.09,33.36c-0.05,0.44,0.09,0.88,0.39,1.21
			c0.29,0.33,0.7,0.52,1.14,0.52h41.5c0.44,0,0.86-0.19,1.14-0.52c0.29-0.32,0.43-0.76,0.38-1.2L68.2,62.42z M40.94,27.51l-7.91-7.7
			l10.93-1.59c0.5-0.07,0.93-0.39,1.15-0.84l4.88-9.87l4.88,9.9c0.22,0.45,0.66,0.77,1.15,0.84l10.93,1.59l-7.91,7.67
			c-0.36,0.36-0.52,0.86-0.44,1.36l1.87,10.9l-9.78-5.11c-0.45-0.25-0.99-0.25-1.43,0l-9.78,5.11l1.87-10.89
			C41.47,28.37,41.3,27.86,40.94,27.51z M45.03,40.3l4.98-2.57l4.94,2.6L52.28,53.6h-4.56L45.03,40.3z M30.95,94.45l3.73-30.31h6.76
			c0.85,0,1.53-0.69,1.53-1.53l0,0v-5.94h14.06v5.94c0,0.85,0.69,1.53,1.53,1.53h6.76l3.7,30.29L30.95,94.45z"/>
		<path class="st2" d="M59.83,72.65H40.18c-0.85,0-1.53,0.69-1.53,1.53c0,0.85,0.69,1.53,1.53,1.53h19.66
			c0.85,0,1.53-0.69,1.53-1.53C61.37,73.34,60.68,72.65,59.83,72.65z"/>
		<path class="st2" d="M59.83,83.7H40.18c-0.85,0-1.53,0.69-1.53,1.53c0,0.85,0.69,1.53,1.53,1.53h19.66c0.85,0,1.53-0.69,1.53-1.53
			C61.37,84.38,60.68,83.7,59.83,83.7z"/>
		<path class="st2" d="M59.83,78.19H40.18c-0.85,0-1.53,0.69-1.53,1.53s0.69,1.53,1.53,1.53h19.66c0.85,0,1.53-0.69,1.53-1.53
			S60.68,78.19,59.83,78.19z"/>
		<path class="st2" d="M87.02,49.06c-0.6-0.59-1.57-0.59-2.18,0l-2.04,2.04l-2.04-2.04c-0.65-0.55-1.61-0.46-2.16,0.18
			c-0.49,0.58-0.48,1.42,0.01,1.99l2.04,2.04l-2.04,2.04c-0.61,0.59-0.63,1.56-0.04,2.17c0.28,0.29,0.66,0.46,1.06,0.47
			c0.41,0,0.8-0.16,1.08-0.45l2.04-2.04l2.04,2.04c0.6,0.6,1.57,0.6,2.18,0c0.59-0.6,0.59-1.57,0-2.17l-2.04-2.04l2.04-2.04
			C87.6,50.67,87.62,49.68,87.02,49.06C87.02,49.06,87.02,49.06,87.02,49.06z"/>
		<path class="st2" d="M21.4,49.06c-0.6-0.59-1.57-0.59-2.17,0l-2.04,2.04l-2.04-2.04c-0.64-0.56-1.62-0.49-2.18,0.16
			c-0.5,0.58-0.5,1.44,0,2.02l2.04,2.04l-2.04,2.04c-0.59,0.6-0.59,1.57,0,2.17c0.6,0.6,1.57,0.6,2.18,0l2.04-2.04l2.04,2.04
			c0.29,0.29,0.68,0.45,1.08,0.45c0.85-0.01,1.52-0.71,1.51-1.55c-0.01-0.39-0.16-0.76-0.43-1.04l-2.04-2.04l2.04-2.04
			c0.61-0.59,0.62-1.56,0.03-2.17C21.42,49.08,21.41,49.07,21.4,49.06z"/>
		<path class="st2" d="M90.97,18.18l2.04-2.04c0.58-0.61,0.56-1.58-0.05-2.17c-0.58-0.56-1.5-0.56-2.09-0.02l-2.04,2.04l-2.04-2.04
			c-0.6-0.59-1.57-0.59-2.17,0c-0.6,0.59-0.6,1.55-0.01,2.15c0,0,0.01,0.01,0.01,0.01l2.04,2.04l-2.04,2.04
			c-0.6,0.59-0.6,1.55-0.01,2.15c0,0,0.01,0.01,0.01,0.01c0.29,0.29,0.68,0.45,1.08,0.45c0.4,0.01,0.79-0.14,1.08-0.42l2.04-2.04
			l2.04,2.04c0.29,0.29,0.68,0.45,1.08,0.45c0.4-0.01,0.79-0.17,1.07-0.45c0.59-0.6,0.59-1.57,0-2.17L90.97,18.18z"/>
		<path class="st2" d="M14.35,22.85c0.41,0,0.8-0.16,1.08-0.45c0.6-0.59,0.6-1.55,0.01-2.15c0,0-0.01-0.01-0.01-0.01l-2.04-2.04
			l2.04-2.04c0.6-0.59,0.6-1.55,0.01-2.15c0,0-0.01-0.01-0.01-0.01c-0.6-0.59-1.57-0.59-2.17,0l-2.04,2.04l-2.04-2.04
			c-0.58-0.62-1.55-0.65-2.17-0.08c-0.62,0.58-0.65,1.55-0.08,2.17c0.02,0.03,0.05,0.05,0.08,0.08l2.04,2.04l-2.04,2.04
			c-0.59,0.6-0.59,1.57,0,2.17c0.29,0.29,0.69,0.45,1.1,0.45c0.39-0.02,0.75-0.18,1.02-0.45l2.04-2.04l2.04,2.04
			C13.52,22.7,13.93,22.86,14.35,22.85z"/>
	</g>
</g>
</svg>
