<?xml version="1.0" encoding="utf-8"?>
<!-- Generator: Adobe Illustrator 27.7.0, SVG Export Plug-In . SVG Version: 6.00 Build 0)  -->
<svg version="1.1" id="Layer_1" xmlns="http://www.w3.org/2000/svg" xmlns:xlink="http://www.w3.org/1999/xlink" x="0px" y="0px"
	 viewBox="0 0 100 100" style="enable-background:new 0 0 100 100;" xml:space="preserve">
<style type="text/css">
	.st0{fill:#FFFFFF;stroke:#000000;stroke-width:0.9;stroke-linecap:round;stroke-linejoin:round;stroke-miterlimit:10;}
	.st1{fill:#FFFFFF;stroke:#000000;stroke-width:2;stroke-miterlimit:10;}
	.st2{fill:#FFFFFF;stroke:#000000;stroke-width:1.74;stroke-miterlimit:10;}
	.st3{fill-rule:evenodd;clip-rule:evenodd;fill:#FFFFFF;stroke:#000000;stroke-width:1.3;stroke-miterlimit:10;}
	.st4{fill-rule:evenodd;clip-rule:evenodd;fill:#FF0000;}
	.st5{fill:#006837;}
	.st6{fill-rule:evenodd;clip-rule:evenodd;fill:#FFFFFF;}
</style>
<g>
	<g>
		<path class="st0" d="M30.11,9.68l1.79,2.61c13.1-8.97,30.4-8.82,43.34,0.37l-3.37,3.5c-5.51-3.76-12.03-5.77-18.7-5.75
			c-18.33,0-33.25,14.92-33.25,33.25c0,0,0.01,3.71,0.04,3.98c0.4,4.04,3.81,7.12,7.87,7.11H78.5c4.37,0,7.91-3.55,7.92-7.92v-3.17
			c0.01-5.2-1.2-10.33-3.55-14.96l-2.83,1.43c2.12,4.2,3.22,8.83,3.21,13.54v3.17c0,2.62-2.13,4.75-4.75,4.75H27.83
			c-2.2,0.01-4.11-1.5-4.62-3.64l19.06-22.63l8.29,6.91c0.66,0.55,1.64,0.47,2.21-0.17l9.97-11.39l3.55,3.55
			c0.62,0.62,1.62,0.62,2.24,0c0.01-0.01,0.01-0.01,0.02-0.02l13-13.52c0.61-0.63,0.59-1.63-0.04-2.24
			c-0.07-0.07-0.15-0.13-0.24-0.19l-0.77-0.5l8.85-1.69l-0.98,8.84l-0.84-0.84c-0.62-0.62-1.62-0.62-2.24,0
			c-0.04,0.04-0.09,0.09-0.13,0.14L68.86,34.95l-5.07-5.07c-0.62-0.62-1.62-0.62-2.24,0c-0.07,0.07-0.12,0.14-0.18,0.21l-10,14.29
			l-6.58-6.58c-0.62-0.62-1.62-0.62-2.24,0c-0.05,0.05-0.09,0.1-0.13,0.15L34.5,48.12l2.5,1.94l6.82-8.76l6.65,6.65
			c0.62,0.62,1.62,0.62,2.24,0c0.07-0.07,0.12-0.14,0.18-0.21l10-14.29l5,5c0.62,0.62,1.62,0.62,2.24,0
			c0.04-0.04,0.09-0.09,0.13-0.14l13.54-17.23c4.79,6.51,7.38,14.38,7.38,22.46v4.64c0,5.08-1.3,10.07-3.76,14.51
			c-1.36,2.44-2.4,5.05-3.1,7.76c-0.26,1-0.48,2.03-0.64,3.05l3.13,0.5c0.15-0.92,0.34-1.85,0.58-2.76c0.63-2.45,1.58-4.8,2.8-7.01
			c2.72-4.91,4.15-10.43,4.16-16.04v-4.64c-0.01-9.06-3-17.86-8.52-25.04l0.75-0.95l1.9,1.9c0.62,0.62,1.62,0.62,2.24,0
			c0.25-0.25,0.41-0.59,0.45-0.94l1.58-14.25c0.1-0.87-0.53-1.65-1.4-1.75c-0.16-0.02-0.32-0.01-0.47,0.02L76.03,5.36
			c-0.86,0.16-1.42,0.99-1.26,1.85c0.08,0.43,0.33,0.8,0.7,1.03l2.48,1.6l-0.49,0.51C63.4,0.14,44.44-0.14,30.11,9.68L30.11,9.68z
			 M67.39,20.82l-3.61-3.61c-0.62-0.62-1.62-0.62-2.24,0c-0.02,0.02-0.05,0.05-0.07,0.08l-10.07,11.5l-8.31-6.93
			c-0.67-0.56-1.66-0.47-2.22,0.2L23.09,43.18c0.26-16.36,13.65-29.6,30.08-29.6c5.85-0.01,11.58,1.69,16.47,4.91L67.39,20.82z
			 M19.92,86.42v-6.33h3.17v6.33c0,4.37,3.55,7.91,7.92,7.92h34.44c2.24-0.01,4.18-1.58,4.65-3.77l4.28-20.3l3.1,0.65l-4.28,20.3
			c-0.24,1.13-0.73,2.2-1.42,3.12h11.48v-15.6c0-0.63,0.02-1.28,0.06-1.91l3.16,0.18c-0.03,0.57-0.05,1.15-0.05,1.73v17.18
			c0,0.87-0.71,1.58-1.58,1.58H31C24.88,97.49,19.92,92.53,19.92,86.42z M16.73,33.66L9.32,61.08H21.5c0.87,0,1.58,0.71,1.58,1.58
			v7.91c3.75-0.09,7.32-1.62,9.96-4.28l2.24,2.24c-3.24,3.25-7.61,5.12-12.2,5.2v3.18h-3.17V64.25H7.25c-0.87,0-1.58-0.71-1.58-1.58
			c0-0.14,0.02-0.28,0.05-0.41l7.95-29.42c2.17-8.06,6.75-15.27,13.14-20.65l2.04,2.42C22.96,19.57,18.73,26.22,16.73,33.66z"/>
		<path class="st0" d="M78.5,61.08h-3.17v-3.17h3.17c1.94,0,3.86-0.51,5.54-1.49l1.59,2.74C83.46,60.42,81,61.08,78.5,61.08z"/>
	</g>
</g>
</svg>
