<?xml version="1.0" encoding="utf-8"?>
<!-- Generator: Adobe Illustrator 27.7.0, SVG Export Plug-In . SVG Version: 6.00 Build 0)  -->
<svg version="1.1" id="Layer_1" xmlns="http://www.w3.org/2000/svg" xmlns:xlink="http://www.w3.org/1999/xlink" x="0px" y="0px"
	 viewBox="0 0 100 100" style="enable-background:new 0 0 100 100;" xml:space="preserve">
<style type="text/css">
	.st0{fill:#FFFFFF;stroke:#000000;stroke-width:0.9;stroke-linecap:round;stroke-linejoin:round;stroke-miterlimit:10;}
	.st1{fill:#FFFFFF;stroke:#000000;stroke-miterlimit:10;}
	.st2{fill:#FFFFFF;stroke:#000000;stroke-width:0.9;stroke-miterlimit:10;}
	.st3{fill-rule:evenodd;clip-rule:evenodd;fill:#FFFFFF;stroke:#000000;stroke-width:0.5;stroke-miterlimit:10;}
	.st4{fill-rule:evenodd;clip-rule:evenodd;fill:#FF0000;}
	.st5{fill:#006837;}
	.st6{fill-rule:evenodd;clip-rule:evenodd;fill:#FFFFFF;}
</style>
<g>
	<path class="st3" d="M67.93,61.12h26.62c-0.6,3.31-2.67,6.36-6.39,8.11c-4.25,2.01-9.59,2.01-13.84,0
		C70.6,67.47,68.54,64.42,67.93,61.12z M5.46,61.12h26.62c-0.6,3.31-2.67,6.36-6.39,8.11c-4.26,2.01-9.59,2.01-13.85,0
		C8.12,67.47,6.06,64.42,5.46,61.12z M82.55,44.57L93.5,58.5H82.55V44.57z M79.92,44.57V58.5H68.97L79.92,44.57z M20.07,44.57
		L31.03,58.5H20.07C20.07,58.5,20.07,44.57,20.07,44.57z M17.45,44.57V58.5H6.5L17.45,44.57z M50.01,29.33
		c10.45,0,20.93,0.72,31.49,2.26c0.02,0,0.04,0.01,0.06,0.01c0.75,0.07,1.08,0.33,1.32,0.69c0.24,0.35,0.35,0.85,0.28,1.34
		c-0.07,0.5-0.3,0.98-0.65,1.21c-0.62,0.41-0.98,0.35-1.51,0.27c-7.59-1.08-15.13-1.77-22.65-2.04c-0.74-0.03-1.35,0.56-1.35,1.3
		v55.09c0,0.98-0.3,1.38-0.82,1.78c-0.5,0.38-1.32,0.64-2.16,0.64c-0.85,0-1.67-0.26-2.16-0.64c-0.53-0.41-0.82-0.8-0.82-1.78
		c0-10.69,0-21.39,0-32.09c0.01-0.79-0.67-1.41-1.46-1.32c-0.66,0.08-1.16,0.65-1.15,1.32c-0.02,10.7,0.02,21.39-0.01,32.09
		c0,0.98-0.29,1.38-0.81,1.78c-0.5,0.38-1.32,0.64-2.16,0.64c-0.85,0-1.67-0.26-2.17-0.64c-0.52-0.41-0.81-0.8-0.81-1.78V34.42
		c0-0.75-0.62-1.34-1.36-1.31c-7.32,0.28-14.69,0.83-22.05,2.01c-0.62,0.1-1.13,0.02-1.52-0.27c-0.33-0.25-0.57-0.71-0.64-1.21
		c-0.07-0.5,0-1.02,0.27-1.34c0.48-0.58,0.81-0.61,1.38-0.7C29.06,30.03,39.56,29.33,50.01,29.33z M50.01,26.72
		c-10.55,0-21.17,0.64-31.82,2.28c-1.35,0.21-2.57,0.89-3.22,1.82c-0.66,0.96-0.86,2.12-0.7,3.19c0.16,1.08,0.68,2.13,1.59,2.87
		c0.44,0.36,0.99,0.63,1.59,0.77v2.68L2.78,58.99c-0.17,0.23-0.27,0.5-0.28,0.79c-0.01,0.24,0,0.46,0.02,0.71
		c0.41,4.62,3.4,8.83,8.2,11.1c5.01,2.37,11.08,2.37,16.08,0c4.8-2.27,7.79-6.47,8.2-11.1c0.02-0.24,0.02-0.46,0.03-0.71
		c0.01-0.32-0.13-0.61-0.28-0.79L20.07,40.33v-2.71c6.6-0.94,13.18-1.48,19.74-1.78v53.62c0,1.69,0.79,3.06,1.84,3.86
		c1.08,0.83,2.42,1.19,3.76,1.19c1.34,0,2.68-0.37,3.76-1.19h1.06c1.07,0.82,2.41,1.19,3.76,1.19c1.34,0,2.69-0.36,3.76-1.19
		c1.04-0.8,1.84-2.17,1.84-3.86V35.82c6.75,0.28,13.52,0.84,20.32,1.8v2.71L65.26,58.99c-0.18,0.23-0.28,0.5-0.28,0.79
		c0,0.24,0,0.46,0.02,0.71c0.41,4.62,3.41,8.83,8.2,11.1c5.01,2.37,11.09,2.37,16.09,0c4.8-2.27,7.78-6.47,8.19-11.1
		c0.03-0.24,0.02-0.46,0.03-0.71c0.01-0.32-0.13-0.61-0.28-0.79L82.55,40.33v-2.67c0.61-0.15,1.15-0.42,1.61-0.78
		c0.91-0.74,1.42-1.79,1.58-2.87c0.16-1.07-0.05-2.22-0.7-3.19c-0.72-1.08-2.08-1.69-3.22-1.82C71.15,27.44,60.55,26.72,50.01,26.72
		z"/>
	<path class="st3" d="M48.48,8.28c3.52-0.83,7.02,1.32,7.86,4.83c0.84,3.52-1.3,7.03-4.83,7.87c-3.52,0.83-7.01-1.32-7.85-4.83
		C42.82,12.63,44.97,9.12,48.48,8.28z M47.88,5.73c-4.9,1.17-7.93,6.12-6.76,11.02c1.17,4.89,6.13,7.94,11.02,6.77
		c4.89-1.17,7.93-6.12,6.76-11.02C57.72,7.62,52.77,4.57,47.88,5.73z"/>
</g>
</svg>
