<?xml version="1.0" encoding="utf-8"?>
<!-- Generator: Adobe Illustrator 27.7.0, SVG Export Plug-In . SVG Version: 6.00 Build 0)  -->
<svg version="1.1" id="Layer_1" xmlns="http://www.w3.org/2000/svg" xmlns:xlink="http://www.w3.org/1999/xlink" x="0px" y="0px"
	 viewBox="0 0 100 100" style="enable-background:new 0 0 100 100;" xml:space="preserve">
<style type="text/css">
	.st0{fill:#FFFFFF;stroke:#000000;stroke-width:0.9;stroke-linecap:round;stroke-linejoin:round;stroke-miterlimit:10;}
	.st1{fill:#FFFFFF;stroke:#000000;stroke-miterlimit:10;}
	.st2{fill:#FFFFFF;stroke:#000000;stroke-width:0.9;stroke-miterlimit:10;}
	.st3{fill-rule:evenodd;clip-rule:evenodd;fill:#FFFFFF;stroke:#000000;stroke-width:0.5;stroke-miterlimit:10;}
	.st4{fill-rule:evenodd;clip-rule:evenodd;fill:#FF0000;}
	.st5{fill:#006837;}
	.st6{fill-rule:evenodd;clip-rule:evenodd;fill:#FFFFFF;}
</style>
<g>
	<g>
		<polygon class="st1" points="62.18,70.33 51.55,64.19 51.55,51.92 48.26,51.92 48.26,64.19 37.63,70.33 39.27,73.17 49.91,67.03 
			60.54,73.17 		"/>
		<path class="st1" d="M23.22,67.92c3.29-1.17,5.66-4.31,5.66-7.99c0-4.68-3.81-8.49-8.49-8.49c-4.68,0-8.49,3.81-8.49,8.49
			c0,3.72,2.41,6.88,5.74,8.02C9.07,69.64,2.5,78.83,2.5,89.88h3.28c0-10.44,6.6-18.93,14.72-18.93s14.72,8.49,14.72,18.93h3.28
			C38.51,78.77,31.87,69.53,23.22,67.92z M15.19,59.92c0-2.87,2.33-5.2,5.2-5.2c2.87,0,5.2,2.33,5.2,5.2c0,2.87-2.33,5.2-5.2,5.2
			C17.52,65.13,15.19,62.79,15.19,59.92z"/>
		<path class="st1" d="M49.91,29.63c8.12,0,14.72,8.49,14.72,18.94h3.29c0-11.11-6.65-20.35-15.3-21.97
			c3.29-1.17,5.66-4.31,5.66-7.99c0-4.68-3.81-8.49-8.49-8.49s-8.49,3.81-8.49,8.49c0,3.72,2.41,6.88,5.74,8.02
			c-8.57,1.7-15.15,10.88-15.15,21.94h3.28C35.18,38.12,41.79,29.63,49.91,29.63z M44.59,18.61c0-2.87,2.33-5.2,5.2-5.2
			c2.87,0,5.2,2.33,5.2,5.2c0,2.87-2.33,5.2-5.2,5.2C46.92,23.81,44.59,21.47,44.59,18.61z"/>
		<path class="st1" d="M82.2,67.82c3.29-1.17,5.66-4.32,5.66-8.01c0-4.68-3.81-8.49-8.49-8.49c-4.68,0-8.49,3.81-8.49,8.49
			c0,3.73,2.41,6.9,5.74,8.05c-8.57,1.69-15.15,10.87-15.15,21.91h3.28c0-10.43,6.6-18.91,14.72-18.91
			c8.12,0,14.72,8.48,14.72,18.91h3.28C97.5,78.66,90.85,69.44,82.2,67.82z M74.17,59.81c0-2.87,2.33-5.2,5.2-5.2s5.2,2.33,5.2,5.2
			c0,2.88-2.33,5.23-5.2,5.23S74.17,62.69,74.17,59.81z"/>
	</g>
</g>
</svg>
