<?xml version="1.0" encoding="utf-8"?>
<!-- Generator: Adobe Illustrator 27.7.0, SVG Export Plug-In . SVG Version: 6.00 Build 0)  -->
<svg version="1.1" id="Layer_1" xmlns="http://www.w3.org/2000/svg" xmlns:xlink="http://www.w3.org/1999/xlink" x="0px" y="0px"
	 viewBox="0 0 100 100" style="enable-background:new 0 0 100 100;" xml:space="preserve">
<style type="text/css">
	.st0{fill-rule:evenodd;clip-rule:evenodd;fill:#FFFFFF;}
</style>
<g>
	<path class="st0" d="M95.28,36.03c0-1.42-1.15-2.57-2.57-2.57s-2.57,1.15-2.57,2.57s1.15,2.57,2.57,2.57
		c0.68,0,1.34-0.27,1.82-0.75S95.29,36.71,95.28,36.03z M22.36,40.1c0.31-0.53,0.99-0.71,1.52-0.4c0.53,0.31,0.71,0.99,0.4,1.52l0,0
		l-3.43,5.95c-0.31,0.53-0.99,0.71-1.52,0.41l0,0c-0.02-0.01-0.04-0.02-0.06-0.03l-3.14-1.81c-0.53-0.31-0.71-0.98-0.41-1.51
		c0.31-0.53,0.98-0.71,1.51-0.41l2.24,1.3L22.36,40.1L22.36,40.1z M89.17,49.99c0-1-0.81-1.8-1.8-1.8c-1,0-1.8,0.81-1.8,1.8
		c0,1,0.81,1.8,1.8,1.8c0.48,0,0.94-0.19,1.27-0.53C88.98,50.92,89.17,50.47,89.17,49.99z M90.22,47.14c1.57,1.57,1.57,4.13,0,5.7
		s-4.13,1.57-5.7,0c-0.48-0.48-0.83-1.08-1.02-1.73h-1.97c-0.37,0-0.71-0.18-0.92-0.48l-2.41-3.01h-4.43
		c-1.89,5.17-5.21,9.71-9.56,13.09c-2.22,1.66-3.52,4.27-3.51,7.04c2.43,0.69,3.83,3.22,3.14,5.64c-0.42,1.45-1.52,2.61-2.96,3.08
		c1.12,1.92,0.47,4.39-1.46,5.51c-0.61,0.36-1.31,0.55-2.02,0.55h-2.8v0.94c-0.05,4.61-3.83,8.31-8.44,8.26
		c-4.54-0.05-8.2-3.72-8.26-8.26v-0.94h-2.78c-2.22,0.01-4.03-1.79-4.03-4.01c0-0.72,0.19-1.42,0.55-2.04
		c-2.4-0.79-3.7-3.37-2.91-5.77c0.47-1.44,1.63-2.55,3.08-2.96c0.01-2.77-1.29-5.38-3.51-7.04c-0.74-0.58-1.46-1.2-2.16-1.86
		c-0.51-0.48-1-0.98-1.47-1.49c-0.19,0.07-0.39,0.13-0.59,0.19l-0.32,2.25c-0.05,0.33-0.2,0.64-0.43,0.89
		c-0.27,0.28-0.64,0.44-1.03,0.44h-4.64c-0.39,0-0.76-0.16-1.03-0.44c-0.23-0.24-0.38-0.55-0.42-0.89l-0.32-2.25
		c-0.5-0.15-0.98-0.32-1.46-0.52c-0.48-0.2-0.94-0.42-1.4-0.67l-1.82,1.37c-0.27,0.2-0.59,0.31-0.92,0.32
		c-0.39,0.01-0.77-0.14-1.04-0.41l-3.28-3.27l0,0c-0.27-0.28-0.42-0.65-0.41-1.04c0.01-0.33,0.12-0.66,0.32-0.92l1.38-1.82
		c-0.5-0.9-0.9-1.86-1.19-2.85l-2.25-0.32C3.49,47.38,3.18,47.23,2.93,47c-0.28-0.27-0.44-0.64-0.44-1.03v-4.65
		c0-0.39,0.16-0.76,0.44-1.03c0.24-0.23,0.55-0.38,0.89-0.42l2.25-0.32c0.15-0.5,0.32-0.98,0.52-1.46s0.42-0.94,0.67-1.4L5.9,34.86
		c-0.2-0.27-0.31-0.59-0.32-0.92c-0.01-0.33,0.1-0.65,0.3-0.91c0.04-0.05,0.07-0.09,0.12-0.14l3.28-3.28
		c0.28-0.28,0.65-0.42,1.04-0.41c0.33,0.01,0.66,0.12,0.92,0.32l1.82,1.37c0.9-0.5,1.86-0.89,2.85-1.19l0.32-2.25
		c0.04-0.33,0.19-0.64,0.42-0.89c0.27-0.28,0.64-0.44,1.03-0.44h1.62C25.63,11.24,42.83,4.3,57.71,10.63
		c5.87,2.49,10.76,6.84,13.94,12.36h7.08l2.42-3.01c0.21-0.3,0.55-0.48,0.92-0.48h1.97c0.62-2.14,2.85-3.37,4.98-2.76
		c2.14,0.62,3.37,2.85,2.76,4.98c-0.62,2.14-2.85,3.37-4.98,2.76c-1.33-0.38-2.37-1.42-2.76-2.76h-1.45l-2.46,3.08
		c-0.21,0.26-0.53,0.41-0.87,0.41l0,0H72.8c1.42,3.06,2.3,6.34,2.6,9.69h12.63c0.61-2.58,3.2-4.17,5.78-3.55s4.17,3.2,3.55,5.78
		c-0.61,2.58-3.2,4.17-5.78,3.55c-1.76-0.42-3.13-1.79-3.55-3.55H75.52c0,0.14,0,0.28,0,0.42c0,2.64-0.35,5.27-1.06,7.81h4.25l0,0
		c0.34,0,0.65,0.15,0.86,0.41l2.46,3.08h1.44c0.62-2.14,2.85-3.38,4.99-2.76C89.14,46.29,89.73,46.65,90.22,47.14L90.22,47.14z
		 M89.19,21.89c0.7-0.7,0.7-1.84,0-2.55c-0.7-0.7-1.84-0.7-2.55,0s-0.7,1.84,0,2.55c0.34,0.34,0.8,0.53,1.27,0.53
		C88.4,22.42,88.85,22.23,89.19,21.89z M40.13,82.52v0.94c0,3.38,2.74,6.12,6.12,6.12c3.38,0,6.12-2.74,6.12-6.12v-0.94H40.13z
		 M35.12,76.69c-0.99,0.02-1.78,0.85-1.76,1.84c0.02,0.96,0.8,1.73,1.76,1.76H57.4c0.99-0.02,1.78-0.85,1.76-1.84
		c-0.02-0.96-0.8-1.73-1.76-1.76H35.12z M34.04,67.56h8.43V39.64c-2.28,1.5-5.34,0.86-6.84-1.42s-0.86-5.34,1.42-6.84
		s5.34-0.86,6.84,1.42c0.52,0.8,0.8,1.73,0.81,2.68l0,0v32.07h3.1V35.49l0,0c0.02-2.73,2.24-4.92,4.97-4.91
		c2.73,0.02,4.92,2.24,4.91,4.97s-2.24,4.92-4.97,4.91c-0.95-0.01-1.88-0.29-2.68-0.81v27.92h8.43c0.05-3.39,1.66-6.57,4.37-8.62
		c11.8-9.16,13.95-26.15,4.79-37.96s-26.16-13.95-37.96-4.8c-3.39,2.63-6.11,6.04-7.93,9.93h0.59c0.39,0,0.76,0.16,1.03,0.44
		c0.23,0.24,0.38,0.55,0.43,0.89l0.32,2.25c0.5,0.14,0.98,0.32,1.46,0.52c0.48,0.2,0.94,0.42,1.4,0.67l1.83-1.37
		c0.27-0.2,0.59-0.31,0.92-0.32c0.39-0.01,0.77,0.14,1.04,0.41l3.28,3.28c0.27,0.28,0.42,0.65,0.41,1.04
		c-0.01,0.33-0.12,0.66-0.32,0.92l-1.37,1.82c0.5,0.9,0.89,1.86,1.19,2.85l2.25,0.32c0.33,0.04,0.64,0.19,0.89,0.42
		c0.28,0.27,0.44,0.64,0.44,1.03v4.64c0,0.39-0.16,0.76-0.44,1.03c-0.24,0.23-0.55,0.38-0.89,0.42l-2.25,0.32
		c-0.15,0.5-0.32,0.98-0.52,1.46s-0.42,0.95-0.68,1.41l1.37,1.83c0.2,0.27,0.31,0.59,0.32,0.92c0.01,0.39-0.14,0.77-0.41,1.04
		l-3.28,3.28c-0.28,0.27-0.65,0.42-1.04,0.41c-0.33-0.01-0.66-0.12-0.92-0.32l-1.83-1.37l-0.1,0.05c0.27,0.28,0.54,0.55,0.82,0.81
		c0.63,0.6,1.3,1.17,2.01,1.72C32.38,60.99,34,64.17,34.04,67.56L34.04,67.56z M59.44,69.79H33.06c-1.29,0.03-2.32,1.1-2.29,2.39
		c0.03,1.25,1.04,2.26,2.29,2.29h26.38c1.29-0.03,2.32-1.1,2.29-2.39C61.7,70.82,60.69,69.81,59.44,69.79z M20,33.78
		c-5.44,0-9.85,4.41-9.85,9.85s4.41,9.85,9.85,9.85s9.85-4.41,9.85-9.85c0-2.61-1.04-5.12-2.88-6.97
		C25.12,34.81,22.61,33.78,20,33.78z M25.38,38.24c-2.98-2.97-7.8-2.97-10.77,0s-2.97,7.8,0,10.77s7.8,2.97,10.77,0
		c1.43-1.43,2.23-3.37,2.23-5.39C27.62,41.6,26.81,39.66,25.38,38.24z M21.98,30.69l-0.33-2.34h-3.31L18,30.75
		c-0.06,0.45-0.4,0.82-0.84,0.93l0,0c-1.27,0.3-2.49,0.8-3.6,1.49c-0.4,0.25-0.91,0.22-1.27-0.08l-1.91-1.44L8.03,34l1.46,1.94
		c0.28,0.37,0.3,0.87,0.05,1.26c-0.68,1.11-1.18,2.32-1.49,3.59c-0.11,0.47-0.5,0.81-0.98,0.86l-2.34,0.33v3.31l2.39,0.34
		c0.45,0.06,0.82,0.4,0.93,0.84l0,0c0.3,1.27,0.8,2.49,1.49,3.6c0.25,0.4,0.22,0.91-0.07,1.28l-1.44,1.91l2.35,2.35l1.94-1.46
		c0.37-0.28,0.87-0.3,1.26-0.05c1.11,0.68,2.32,1.19,3.59,1.49c0.47,0.11,0.81,0.51,0.86,0.98l0.33,2.34h3.31l0.34-2.39
		c0.06-0.45,0.4-0.82,0.84-0.93l0,0c0.63-0.15,1.25-0.35,1.85-0.6s1.19-0.55,1.75-0.89c0.4-0.25,0.91-0.22,1.27,0.08l1.91,1.44
		l2.35-2.35l-1.45-1.94c-0.28-0.37-0.3-0.87-0.05-1.26c0.68-1.11,1.18-2.32,1.49-3.59c0.11-0.47,0.51-0.81,0.98-0.86l2.34-0.33
		v-3.31l-2.39-0.34c-0.45-0.06-0.82-0.4-0.93-0.84l0,0c-0.15-0.63-0.35-1.25-0.6-1.85s-0.55-1.19-0.89-1.74
		c-0.25-0.4-0.21-0.91,0.08-1.27L31.97,34l-2.35-2.35l-1.94,1.46c-0.37,0.28-0.87,0.3-1.26,0.05c-1.11-0.68-2.32-1.18-3.59-1.49
		C22.38,31.57,22.03,31.17,21.98,30.69L21.98,30.69z M52.73,32.81c-1.5,0-2.71,1.21-2.71,2.71s1.21,2.71,2.71,2.71
		s2.71-1.21,2.71-2.71c0-0.72-0.29-1.41-0.79-1.92C54.14,33.09,53.45,32.81,52.73,32.81z M41.68,33.6c-1.06-1.06-2.77-1.06-3.83,0
		s-1.06,2.77,0,3.83s2.77,1.06,3.83,0c0.5-0.5,0.79-1.19,0.79-1.9V35.5C42.47,34.79,42.19,34.1,41.68,33.6L41.68,33.6z"/>
</g>
</svg>
